<svg width="1221" height="225" viewBox="0 0 1221 225" fill="none" xmlns="http://www.w3.org/2000/svg">
<path d="M274.361 129.919C280.248 125.825 281.506 119.921 278.828 113.801C274.997 105.049 263.988 97.6866 251.334 99.2666C234.876 101.323 227.86 112.593 224.874 121.175C218.669 139.016 231.341 162.544 253.456 153.376C263.545 149.193 259.566 140.211 274.361 129.919" fill="#231F20"/>
<path d="M294.35 143.448C289.798 149.729 303.635 161.695 308.292 155.823C314.007 148.619 316.154 137.921 307.044 137.961C307.044 137.961 298.075 138.303 294.35 143.448Z" fill="#231F20"/>
<path d="M317.086 152.625C314.094 164.667 303.934 172.952 298.254 176.98C284.281 186.893 269.22 192.877 257.717 195.137C258.718 181.991 250.33 165.927 231.341 162.544C214.674 159.575 207.548 161.841 189.808 159.075C176.43 156.992 157.586 142.181 153.657 117.984C150.973 101.448 151.86 91.0707 142.909 89.312C129.297 86.6374 121.097 113.041 122.457 132.539C124.638 163.803 135.985 191.279 158.368 205.669C139.732 205.669 112.206 205.661 97.4782 205.659C115.974 190.615 115.92 165.14 105.688 151.875C96.6942 140.216 82.9742 141.443 73.1076 144.477C69.9396 134.156 67.1942 124.227 66.0782 119.56C60.3102 95.456 33.0076 85.408 14.4756 102.792C19.5049 53.8987 61.1435 13.3827 114.63 13.3827C141.278 13.3827 166.845 24.0987 185.53 42.6C179.594 49.956 179.674 59.5854 179.698 65.8107C179.773 84.484 196.133 85.7867 201.186 77.3814C207.165 67.4347 204.017 70.5134 214.313 60.7467C216.854 58.3387 217.944 54.7867 217.824 51.0547C250.741 48.1094 280.08 66.976 292.364 94.9107C294.664 102.671 288.909 107.112 289.53 115.927C289.973 122.263 294.537 124.64 301.222 127.352C302.274 127.932 303.525 128.479 305.037 129.003C314.089 132.131 319.326 143.617 317.086 152.625V152.625ZM85.3342 205.224C71.3889 212.287 59.9089 212.221 55.0889 205.604C48.5502 196.631 56.1809 179.729 72.9169 170.396C86.6209 162.755 96.0289 164.473 100.474 169.221C109.54 178.901 102.336 196.612 85.3342 205.224V205.224ZM319.832 133.407C314.156 124.507 307.061 123.117 304.844 122.052C304.088 93.8227 288.612 69.5574 266.137 55.968C268.45 44.8747 261.478 29.4654 243.298 30.8454C232.168 31.6894 225.834 37.7987 221.829 44.4067C220.056 44.4654 218.278 44.5907 216.504 44.7667C212.385 34.2867 201.469 30.408 190.21 38.2614C170.324 18.4707 143.056 7.00003 114.63 7.00003C82.6542 7.00003 52.4196 20.792 31.5676 46.1747C26.6889 41.7107 19.1996 38.2134 9.80222 44.3747C-6.13378 54.8214 -0.68179 77.74 12.2222 82.008C9.25821 91.6094 7.6809 101.64 7.57823 111.868C4.25156 118.063 1.81022 126.505 1.29955 138.117C0.132887 164.68 8.77423 214.596 58.5102 216.429C69.3676 216.831 78.9129 215.344 86.8076 212.039C100.516 212.047 152.784 212.075 171.436 212.068C179.141 214.815 187.8 216.325 197.493 216.325C228.404 216.325 249.884 218.651 256.234 201.956C266.894 200.143 281.95 196.036 295.781 186.767C315.484 186.035 329.472 184.749 336.08 175.268C344.197 163.624 339.441 140.847 319.832 133.407" fill="#231F20"/>
<path d="M444.95 93.15C447.45 89.25 450.9 86.1 455.3 83.7C459.7 81.3 464.85 80.1 470.75 80.1C477.65 80.1 483.9 81.85 489.5 85.35C495.1 88.85 499.5 93.85 502.7 100.35C506 106.85 507.65 114.4 507.65 123C507.65 131.6 506 139.2 502.7 145.8C499.5 152.3 495.1 157.35 489.5 160.95C483.9 164.45 477.65 166.2 470.75 166.2C464.95 166.2 459.8 165 455.3 162.6C450.9 160.2 447.45 157.1 444.95 153.3V204.9H419.3V81.3H444.95V93.15ZM481.55 123C481.55 116.6 479.75 111.6 476.15 108C472.65 104.3 468.3 102.45 463.1 102.45C458 102.45 453.65 104.3 450.05 108C446.55 111.7 444.8 116.75 444.8 123.15C444.8 129.55 446.55 134.6 450.05 138.3C453.65 142 458 143.85 463.1 143.85C468.2 143.85 472.55 142 476.15 138.3C479.75 134.5 481.55 129.4 481.55 123ZM516.007 123C516.007 114.4 517.607 106.85 520.807 100.35C524.107 93.85 528.557 88.85 534.157 85.35C539.757 81.85 546.007 80.1 552.907 80.1C558.807 80.1 563.957 81.3 568.357 83.7C572.857 86.1 576.307 89.25 578.707 93.15V81.3H604.357V165H578.707V153.15C576.207 157.05 572.707 160.2 568.207 162.6C563.807 165 558.657 166.2 552.757 166.2C545.957 166.2 539.757 164.45 534.157 160.95C528.557 157.35 524.107 152.3 520.807 145.8C517.607 139.2 516.007 131.6 516.007 123ZM578.707 123.15C578.707 116.75 576.907 111.7 573.307 108C569.807 104.3 565.507 102.45 560.407 102.45C555.307 102.45 550.957 104.3 547.357 108C543.857 111.6 542.107 116.6 542.107 123C542.107 129.4 543.857 134.5 547.357 138.3C550.957 142 555.307 143.85 560.407 143.85C565.507 143.85 569.807 142 573.307 138.3C576.907 134.6 578.707 129.55 578.707 123.15ZM673.913 80.4C683.713 80.4 691.513 83.6 697.313 90C703.213 96.3 706.163 105 706.163 116.1V165H680.663V119.55C680.663 113.95 679.213 109.6 676.313 106.5C673.413 103.4 669.513 101.85 664.613 101.85C659.713 101.85 655.813 103.4 652.913 106.5C650.013 109.6 648.563 113.95 648.563 119.55V165H622.913V81.3H648.563V92.4C651.163 88.7 654.663 85.8 659.063 83.7C663.463 81.5 668.413 80.4 673.913 80.4ZM718.888 123C718.888 114.4 720.488 106.85 723.688 100.35C726.988 93.85 731.438 88.85 737.038 85.35C742.638 81.85 748.888 80.1 755.788 80.1C761.288 80.1 766.288 81.25 770.788 83.55C775.388 85.85 778.988 88.95 781.588 92.85V54H807.238V165H781.588V153C779.188 157 775.738 160.2 771.238 162.6C766.838 165 761.688 166.2 755.788 166.2C748.888 166.2 742.638 164.45 737.038 160.95C731.438 157.35 726.988 152.3 723.688 145.8C720.488 139.2 718.888 131.6 718.888 123ZM781.588 123.15C781.588 116.75 779.788 111.7 776.188 108C772.688 104.3 768.388 102.45 763.288 102.45C758.188 102.45 753.838 104.3 750.238 108C746.738 111.6 744.988 116.6 744.988 123C744.988 129.4 746.738 134.5 750.238 138.3C753.838 142 758.188 143.85 763.288 143.85C768.388 143.85 772.688 142 776.188 138.3C779.788 134.6 781.588 129.55 781.588 123.15ZM820.694 123C820.694 114.4 822.294 106.85 825.494 100.35C828.794 93.85 833.244 88.85 838.844 85.35C844.444 81.85 850.694 80.1 857.594 80.1C863.494 80.1 868.644 81.3 873.044 83.7C877.544 86.1 880.994 89.25 883.394 93.15V81.3H909.044V165H883.394V153.15C880.894 157.05 877.394 160.2 872.894 162.6C868.494 165 863.344 166.2 857.444 166.2C850.644 166.2 844.444 164.45 838.844 160.95C833.244 157.35 828.794 152.3 825.494 145.8C822.294 139.2 820.694 131.6 820.694 123ZM883.394 123.15C883.394 116.75 881.594 111.7 877.994 108C874.494 104.3 870.194 102.45 865.094 102.45C859.994 102.45 855.644 104.3 852.044 108C848.544 111.6 846.794 116.6 846.794 123C846.794 129.4 848.544 134.5 852.044 138.3C855.644 142 859.994 143.85 865.094 143.85C870.194 143.85 874.494 142 877.994 138.3C881.594 134.6 883.394 129.55 883.394 123.15ZM969.601 102.6H955.801V165H930.151V102.6H920.851V81.3H930.151V78.9C930.151 68.6 933.101 60.8 939.001 55.5C944.901 50.1 953.551 47.4 964.951 47.4C966.851 47.4 968.251 47.45 969.151 47.55V69.3C964.251 69 960.801 69.7 958.801 71.4C956.801 73.1 955.801 76.15 955.801 80.55V81.3H969.601V102.6ZM1007.3 54V165H981.654V54H1007.3ZM1020.79 123C1020.79 114.4 1022.39 106.85 1025.59 100.35C1028.89 93.85 1033.34 88.85 1038.94 85.35C1044.54 81.85 1050.79 80.1 1057.69 80.1C1063.59 80.1 1068.74 81.3 1073.14 83.7C1077.64 86.1 1081.09 89.25 1083.49 93.15V81.3H1109.14V165H1083.49V153.15C1080.99 157.05 1077.49 160.2 1072.99 162.6C1068.59 165 1063.44 166.2 1057.54 166.2C1050.74 166.2 1044.54 164.45 1038.94 160.95C1033.34 157.35 1028.89 152.3 1025.59 145.8C1022.39 139.2 1020.79 131.6 1020.79 123ZM1083.49 123.15C1083.49 116.75 1081.69 111.7 1078.09 108C1074.59 104.3 1070.29 102.45 1065.19 102.45C1060.09 102.45 1055.74 104.3 1052.14 108C1048.64 111.6 1046.89 116.6 1046.89 123C1046.89 129.4 1048.64 134.5 1052.14 138.3C1055.74 142 1060.09 143.85 1065.19 143.85C1070.29 143.85 1074.59 142 1078.09 138.3C1081.69 134.6 1083.49 129.55 1083.49 123.15ZM1159.5 80.1C1165.4 80.1 1170.55 81.3 1174.95 83.7C1179.45 86.1 1182.9 89.25 1185.3 93.15V81.3H1210.95V164.85C1210.95 172.55 1209.4 179.5 1206.3 185.7C1203.3 192 1198.65 197 1192.35 200.7C1186.15 204.4 1178.4 206.25 1169.1 206.25C1156.7 206.25 1146.65 203.3 1138.95 197.4C1131.25 191.6 1126.85 183.7 1125.75 173.7H1151.1C1151.9 176.9 1153.8 179.4 1156.8 181.2C1159.8 183.1 1163.5 184.05 1167.9 184.05C1173.2 184.05 1177.4 182.5 1180.5 179.4C1183.7 176.4 1185.3 171.55 1185.3 164.85V153C1182.8 156.9 1179.35 160.1 1174.95 162.6C1170.55 165 1165.4 166.2 1159.5 166.2C1152.6 166.2 1146.35 164.45 1140.75 160.95C1135.15 157.35 1130.7 152.3 1127.4 145.8C1124.2 139.2 1122.6 131.6 1122.6 123C1122.6 114.4 1124.2 106.85 1127.4 100.35C1130.7 93.85 1135.15 88.85 1140.75 85.35C1146.35 81.85 1152.6 80.1 1159.5 80.1ZM1185.3 123.15C1185.3 116.75 1183.5 111.7 1179.9 108C1176.4 104.3 1172.1 102.45 1167 102.45C1161.9 102.45 1157.55 104.3 1153.95 108C1150.45 111.6 1148.7 116.6 1148.7 123C1148.7 129.4 1150.45 134.5 1153.95 138.3C1157.55 142 1161.9 143.85 1167 143.85C1172.1 143.85 1176.4 142 1179.9 138.3C1183.5 134.6 1185.3 129.55 1185.3 123.15Z" fill="#231F20"/>
</svg>
