<svg width="951" height="210" viewBox="0 0 951 210" fill="none" xmlns="http://www.w3.org/2000/svg">
<path d="M274.361 122.919C280.248 118.825 281.506 112.921 278.828 106.801C274.997 98.0493 263.988 90.6866 251.334 92.2666C234.876 94.3226 227.86 105.593 224.874 114.175C218.669 132.016 231.341 155.544 253.456 146.376C263.545 142.193 259.566 133.211 274.361 122.919" fill="white"/>
<path d="M294.35 136.448C289.798 142.729 303.635 154.695 308.292 148.823C314.007 141.619 316.154 130.921 307.044 130.961C307.044 130.961 298.075 131.303 294.35 136.448Z" fill="white"/>
<path d="M317.086 145.625C314.094 157.667 303.934 165.952 298.254 169.98C284.281 179.893 269.22 185.877 257.717 188.137C258.718 174.991 250.33 158.927 231.341 155.544C214.674 152.575 207.548 154.841 189.808 152.075C176.43 149.992 157.586 135.181 153.657 110.984C150.973 94.448 151.86 84.0707 142.909 82.312C129.297 79.6373 121.097 106.041 122.457 125.539C124.638 156.803 135.985 184.279 158.368 198.669C139.732 198.669 112.206 198.661 97.4782 198.659C115.974 183.615 115.92 158.14 105.688 144.875C96.6942 133.216 82.9742 134.443 73.1076 137.477C69.9396 127.156 67.1942 117.227 66.0782 112.56C60.3102 88.456 33.0076 78.408 14.4756 95.792C19.5049 46.8986 61.1435 6.38268 114.63 6.38268C141.278 6.38268 166.845 17.0987 185.53 35.6C179.594 42.956 179.674 52.5853 179.698 58.8107C179.773 77.484 196.133 78.7867 201.186 70.3813C207.165 60.4347 204.017 63.5133 214.313 53.7467C216.854 51.3387 217.944 47.7867 217.824 44.0547C250.741 41.1093 280.08 59.976 292.364 87.9107C294.664 95.6707 288.909 100.112 289.53 108.927C289.973 115.263 294.537 117.64 301.222 120.352C302.274 120.932 303.525 121.479 305.037 122.003C314.089 125.131 319.326 136.617 317.086 145.625V145.625ZM85.3342 198.224C71.3889 205.287 59.9089 205.221 55.0889 198.604C48.5502 189.631 56.1809 172.729 72.9169 163.396C86.6209 155.755 96.0289 157.473 100.474 162.221C109.54 171.901 102.336 189.612 85.3342 198.224V198.224ZM319.832 126.407C314.156 117.507 307.061 116.117 304.844 115.052C304.088 86.8227 288.612 62.5573 266.137 48.968C268.45 37.8747 261.478 22.4653 243.298 23.8453C232.168 24.6893 225.834 30.7987 221.829 37.4067C220.056 37.4653 218.278 37.5907 216.504 37.7667C212.385 27.2867 201.469 23.408 190.21 31.2613C170.324 11.4707 143.056 -1.75476e-06 114.63 -1.75476e-06C82.6542 -1.75476e-06 52.4196 13.792 31.5676 39.1747C26.6889 34.7107 19.1996 31.2133 9.80222 37.3747C-6.13378 47.8213 -0.68179 70.74 12.2222 75.008C9.25821 84.6093 7.6809 94.64 7.57823 104.868C4.25156 111.063 1.81022 119.505 1.29955 131.117C0.132887 157.68 8.77423 207.596 58.5102 209.429C69.3676 209.831 78.9129 208.344 86.8076 205.039C100.516 205.047 152.784 205.075 171.436 205.068C179.141 207.815 187.8 209.325 197.493 209.325C228.404 209.325 249.884 211.651 256.234 194.956C266.894 193.143 281.95 189.036 295.781 179.767C315.484 179.035 329.472 177.749 336.08 168.268C344.197 156.624 339.441 133.847 319.832 126.407" fill="white"/>
<path d="M433.3 92.1C434.967 89.5 437.267 87.4 440.2 85.8C443.133 84.2 446.567 83.4 450.5 83.4C455.1 83.4 459.267 84.5667 463 86.9C466.733 89.2333 469.667 92.5667 471.8 96.9C474 101.233 475.1 106.267 475.1 112C475.1 117.733 474 122.8 471.8 127.2C469.667 131.533 466.733 134.9 463 137.3C459.267 139.633 455.1 140.8 450.5 140.8C446.633 140.8 443.2 140 440.2 138.4C437.267 136.8 434.967 134.733 433.3 132.2V166.6H416.2V84.2H433.3V92.1ZM457.7 112C457.7 107.733 456.5 104.4 454.1 102C451.767 99.5333 448.867 98.3 445.4 98.3C442 98.3 439.1 99.5333 436.7 102C434.367 104.467 433.2 107.833 433.2 112.1C433.2 116.367 434.367 119.733 436.7 122.2C439.1 124.667 442 125.9 445.4 125.9C448.8 125.9 451.7 124.667 454.1 122.2C456.5 119.667 457.7 116.267 457.7 112ZM480.671 112C480.671 106.267 481.738 101.233 483.871 96.9C486.071 92.5667 489.038 89.2333 492.771 86.9C496.504 84.5667 500.671 83.4 505.271 83.4C509.204 83.4 512.638 84.2 515.571 85.8C518.571 87.4 520.871 89.5 522.471 92.1V84.2H539.571V140H522.471V132.1C520.804 134.7 518.471 136.8 515.471 138.4C512.538 140 509.104 140.8 505.171 140.8C500.638 140.8 496.504 139.633 492.771 137.3C489.038 134.9 486.071 131.533 483.871 127.2C481.738 122.8 480.671 117.733 480.671 112ZM522.471 112.1C522.471 107.833 521.271 104.467 518.871 102C516.538 99.5333 513.671 98.3 510.271 98.3C506.871 98.3 503.971 99.5333 501.571 102C499.238 104.4 498.071 107.733 498.071 112C498.071 116.267 499.238 119.667 501.571 122.2C503.971 124.667 506.871 125.9 510.271 125.9C513.671 125.9 516.538 124.667 518.871 122.2C521.271 119.733 522.471 116.367 522.471 112.1ZM585.942 83.6C592.476 83.6 597.676 85.7333 601.542 90C605.476 94.2 607.442 100 607.442 107.4V140H590.442V109.7C590.442 105.967 589.476 103.067 587.542 101C585.609 98.9333 583.009 97.9 579.742 97.9C576.476 97.9 573.876 98.9333 571.942 101C570.009 103.067 569.042 105.967 569.042 109.7V140H551.942V84.2H569.042V91.6C570.776 89.1333 573.109 87.2 576.042 85.8C578.976 84.3333 582.276 83.6 585.942 83.6ZM615.925 112C615.925 106.267 616.992 101.233 619.125 96.9C621.325 92.5667 624.292 89.2333 628.025 86.9C631.758 84.5667 635.925 83.4 640.525 83.4C644.192 83.4 647.525 84.1667 650.525 85.7C653.592 87.2333 655.992 89.3 657.725 91.9V66H674.825V140H657.725V132C656.125 134.667 653.825 136.8 650.825 138.4C647.892 140 644.458 140.8 640.525 140.8C635.925 140.8 631.758 139.633 628.025 137.3C624.292 134.9 621.325 131.533 619.125 127.2C616.992 122.8 615.925 117.733 615.925 112ZM657.725 112.1C657.725 107.833 656.525 104.467 654.125 102C651.792 99.5333 648.925 98.3 645.525 98.3C642.125 98.3 639.225 99.5333 636.825 102C634.492 104.4 633.325 107.733 633.325 112C633.325 116.267 634.492 119.667 636.825 122.2C639.225 124.667 642.125 125.9 645.525 125.9C648.925 125.9 651.792 124.667 654.125 122.2C656.525 119.733 657.725 116.367 657.725 112.1ZM683.796 112C683.796 106.267 684.863 101.233 686.996 96.9C689.196 92.5667 692.163 89.2333 695.896 86.9C699.629 84.5667 703.796 83.4 708.396 83.4C712.329 83.4 715.763 84.2 718.696 85.8C721.696 87.4 723.996 89.5 725.596 92.1V84.2H742.696V140H725.596V132.1C723.929 134.7 721.596 136.8 718.596 138.4C715.663 140 712.229 140.8 708.296 140.8C703.763 140.8 699.629 139.633 695.896 137.3C692.163 134.9 689.196 131.533 686.996 127.2C684.863 122.8 683.796 117.733 683.796 112ZM725.596 112.1C725.596 107.833 724.396 104.467 721.996 102C719.663 99.5333 716.796 98.3 713.396 98.3C709.996 98.3 707.096 99.5333 704.696 102C702.363 104.4 701.196 107.733 701.196 112C701.196 116.267 702.363 119.667 704.696 122.2C707.096 124.667 709.996 125.9 713.396 125.9C716.796 125.9 719.663 124.667 721.996 122.2C724.396 119.733 725.596 116.367 725.596 112.1ZM783.067 98.4H773.867V140H756.767V98.4H750.567V84.2H756.767V82.6C756.767 75.7333 758.734 70.5333 762.667 67C766.601 63.4 772.367 61.6 779.967 61.6C781.234 61.6 782.167 61.6333 782.767 61.7V76.2C779.501 76 777.201 76.4667 775.867 77.6C774.534 78.7333 773.867 80.7667 773.867 83.7V84.2H783.067V98.4ZM808.202 66V140H791.102V66H808.202ZM817.195 112C817.195 106.267 818.261 101.233 820.395 96.9C822.595 92.5667 825.561 89.2333 829.295 86.9C833.028 84.5667 837.195 83.4 841.795 83.4C845.728 83.4 849.161 84.2 852.095 85.8C855.095 87.4 857.395 89.5 858.995 92.1V84.2H876.095V140H858.995V132.1C857.328 134.7 854.995 136.8 851.995 138.4C849.061 140 845.628 140.8 841.695 140.8C837.161 140.8 833.028 139.633 829.295 137.3C825.561 134.9 822.595 131.533 820.395 127.2C818.261 122.8 817.195 117.733 817.195 112ZM858.995 112.1C858.995 107.833 857.795 104.467 855.395 102C853.061 99.5333 850.195 98.3 846.795 98.3C843.395 98.3 840.495 99.5333 838.095 102C835.761 104.4 834.595 107.733 834.595 112C834.595 116.267 835.761 119.667 838.095 122.2C840.495 124.667 843.395 125.9 846.795 125.9C850.195 125.9 853.061 124.667 855.395 122.2C857.795 119.733 858.995 116.367 858.995 112.1ZM909.666 83.4C913.599 83.4 917.032 84.2 919.966 85.8C922.966 87.4 925.266 89.5 926.866 92.1V84.2H943.966V139.9C943.966 145.033 942.932 149.667 940.866 153.8C938.866 158 935.766 161.333 931.566 163.8C927.432 166.267 922.266 167.5 916.066 167.5C907.799 167.5 901.099 165.533 895.966 161.6C890.832 157.733 887.899 152.467 887.166 145.8H904.066C904.599 147.933 905.866 149.6 907.866 150.8C909.866 152.067 912.332 152.7 915.266 152.7C918.799 152.7 921.599 151.667 923.666 149.6C925.799 147.6 926.866 144.367 926.866 139.9V132C925.199 134.6 922.899 136.733 919.966 138.4C917.032 140 913.599 140.8 909.666 140.8C905.066 140.8 900.899 139.633 897.166 137.3C893.432 134.9 890.466 131.533 888.266 127.2C886.132 122.8 885.066 117.733 885.066 112C885.066 106.267 886.132 101.233 888.266 96.9C890.466 92.5667 893.432 89.2333 897.166 86.9C900.899 84.5667 905.066 83.4 909.666 83.4ZM926.866 112.1C926.866 107.833 925.666 104.467 923.266 102C920.932 99.5333 918.066 98.3 914.666 98.3C911.266 98.3 908.366 99.5333 905.966 102C903.632 104.4 902.466 107.733 902.466 112C902.466 116.267 903.632 119.667 905.966 122.2C908.366 124.667 911.266 125.9 914.666 125.9C918.066 125.9 920.932 124.667 923.266 122.2C925.666 119.733 926.866 116.367 926.866 112.1Z" fill="white"/>
</svg>
