<svg width="433" height="335" viewBox="0 0 433 335" fill="none" xmlns="http://www.w3.org/2000/svg">
<path d="M18.64 264.68C19.9733 262.6 21.8133 260.92 24.16 259.64C26.5067 258.36 29.2533 257.72 32.4 257.72C36.08 257.72 39.4133 258.653 42.4 260.52C45.3867 262.387 47.7333 265.053 49.44 268.52C51.2 271.987 52.08 276.013 52.08 280.6C52.08 285.187 51.2 289.24 49.44 292.76C47.7333 296.227 45.3867 298.92 42.4 300.84C39.4133 302.707 36.08 303.64 32.4 303.64C29.3067 303.64 26.56 303 24.16 301.72C21.8133 300.44 19.9733 298.787 18.64 296.76V324.28H4.96V258.36H18.64V264.68ZM38.16 280.6C38.16 277.187 37.2 274.52 35.28 272.6C33.4133 270.627 31.0933 269.64 28.32 269.64C25.6 269.64 23.28 270.627 21.36 272.6C19.4933 274.573 18.56 277.267 18.56 280.68C18.56 284.093 19.4933 286.787 21.36 288.76C23.28 290.733 25.6 291.72 28.32 291.72C31.04 291.72 33.36 290.733 35.28 288.76C37.2 286.733 38.16 284.013 38.16 280.6ZM56.5369 280.6C56.5369 276.013 57.3902 271.987 59.0969 268.52C60.8569 265.053 63.2302 262.387 66.2169 260.52C69.2035 258.653 72.5369 257.72 76.2169 257.72C79.3635 257.72 82.1102 258.36 84.4569 259.64C86.8569 260.92 88.6969 262.6 89.9769 264.68V258.36H103.657V303H89.9769V296.68C88.6435 298.76 86.7769 300.44 84.3769 301.72C82.0302 303 79.2835 303.64 76.1369 303.64C72.5102 303.64 69.2035 302.707 66.2169 300.84C63.2302 298.92 60.8569 296.227 59.0969 292.76C57.3902 289.24 56.5369 285.187 56.5369 280.6ZM89.9769 280.68C89.9769 277.267 89.0169 274.573 87.0969 272.6C85.2302 270.627 82.9369 269.64 80.2169 269.64C77.4969 269.64 75.1769 270.627 73.2569 272.6C71.3902 274.52 70.4569 277.187 70.4569 280.6C70.4569 284.013 71.3902 286.733 73.2569 288.76C75.1769 290.733 77.4969 291.72 80.2169 291.72C82.9369 291.72 85.2302 290.733 87.0969 288.76C89.0169 286.787 89.9769 284.093 89.9769 280.68ZM140.754 257.88C145.98 257.88 150.14 259.587 153.234 263C156.38 266.36 157.954 271 157.954 276.92V303H144.354V278.76C144.354 275.773 143.58 273.453 142.034 271.8C140.487 270.147 138.407 269.32 135.794 269.32C133.18 269.32 131.1 270.147 129.554 271.8C128.007 273.453 127.234 275.773 127.234 278.76V303H113.554V258.36H127.234V264.28C128.62 262.307 130.487 260.76 132.834 259.64C135.18 258.467 137.82 257.88 140.754 257.88ZM164.74 280.6C164.74 276.013 165.593 271.987 167.3 268.52C169.06 265.053 171.433 262.387 174.42 260.52C177.407 258.653 180.74 257.72 184.42 257.72C187.353 257.72 190.02 258.333 192.42 259.56C194.873 260.787 196.793 262.44 198.18 264.52V243.8H211.86V303H198.18V296.6C196.9 298.733 195.06 300.44 192.66 301.72C190.313 303 187.567 303.64 184.42 303.64C180.74 303.64 177.407 302.707 174.42 300.84C171.433 298.92 169.06 296.227 167.3 292.76C165.593 289.24 164.74 285.187 164.74 280.6ZM198.18 280.68C198.18 277.267 197.22 274.573 195.3 272.6C193.433 270.627 191.14 269.64 188.42 269.64C185.7 269.64 183.38 270.627 181.46 272.6C179.593 274.52 178.66 277.187 178.66 280.6C178.66 284.013 179.593 286.733 181.46 288.76C183.38 290.733 185.7 291.72 188.42 291.72C191.14 291.72 193.433 290.733 195.3 288.76C197.22 286.787 198.18 284.093 198.18 280.68ZM219.037 280.6C219.037 276.013 219.89 271.987 221.597 268.52C223.357 265.053 225.73 262.387 228.717 260.52C231.704 258.653 235.037 257.72 238.717 257.72C241.864 257.72 244.61 258.36 246.957 259.64C249.357 260.92 251.197 262.6 252.477 264.68V258.36H266.157V303H252.477V296.68C251.144 298.76 249.277 300.44 246.877 301.72C244.53 303 241.784 303.64 238.637 303.64C235.01 303.64 231.704 302.707 228.717 300.84C225.73 298.92 223.357 296.227 221.597 292.76C219.89 289.24 219.037 285.187 219.037 280.6ZM252.477 280.68C252.477 277.267 251.517 274.573 249.597 272.6C247.73 270.627 245.437 269.64 242.717 269.64C239.997 269.64 237.677 270.627 235.757 272.6C233.89 274.52 232.957 277.187 232.957 280.6C232.957 284.013 233.89 286.733 235.757 288.76C237.677 290.733 239.997 291.72 242.717 291.72C245.437 291.72 247.73 290.733 249.597 288.76C251.517 286.787 252.477 284.093 252.477 280.68Z" fill="#231F20"/>
<path d="M298.454 269.72H291.094V303H277.414V269.72H272.454V258.36H277.414V257.08C277.414 251.587 278.987 247.427 282.134 244.6C285.28 241.72 289.894 240.28 295.974 240.28C296.987 240.28 297.734 240.307 298.214 240.36V251.96C295.6 251.8 293.76 252.173 292.694 253.08C291.627 253.987 291.094 255.613 291.094 257.96V258.36H298.454V269.72ZM318.562 243.8V303H304.882V243.8H318.562ZM325.756 280.6C325.756 276.013 326.609 271.987 328.316 268.52C330.076 265.053 332.449 262.387 335.436 260.52C338.422 258.653 341.756 257.72 345.436 257.72C348.582 257.72 351.329 258.36 353.676 259.64C356.076 260.92 357.916 262.6 359.196 264.68V258.36H372.876V303H359.196V296.68C357.862 298.76 355.996 300.44 353.596 301.72C351.249 303 348.502 303.64 345.356 303.64C341.729 303.64 338.422 302.707 335.436 300.84C332.449 298.92 330.076 296.227 328.316 292.76C326.609 289.24 325.756 285.187 325.756 280.6ZM359.196 280.68C359.196 277.267 358.236 274.573 356.316 272.6C354.449 270.627 352.156 269.64 349.436 269.64C346.716 269.64 344.396 270.627 342.476 272.6C340.609 274.52 339.676 277.187 339.676 280.6C339.676 284.013 340.609 286.733 342.476 288.76C344.396 290.733 346.716 291.72 349.436 291.72C352.156 291.72 354.449 290.733 356.316 288.76C358.236 286.787 359.196 284.093 359.196 280.68ZM399.733 257.72C402.879 257.72 405.626 258.36 407.973 259.64C410.373 260.92 412.213 262.6 413.493 264.68V258.36H427.173V302.92C427.173 307.027 426.346 310.733 424.693 314.04C423.093 317.4 420.613 320.067 417.253 322.04C413.946 324.013 409.813 325 404.853 325C398.239 325 392.879 323.427 388.773 320.28C384.666 317.187 382.319 312.973 381.733 307.64H395.253C395.679 309.347 396.693 310.68 398.293 311.64C399.893 312.653 401.866 313.16 404.213 313.16C407.039 313.16 409.279 312.333 410.933 310.68C412.639 309.08 413.493 306.493 413.493 302.92V296.6C412.159 298.68 410.319 300.387 407.973 301.72C405.626 303 402.879 303.64 399.733 303.64C396.053 303.64 392.719 302.707 389.733 300.84C386.746 298.92 384.373 296.227 382.613 292.76C380.906 289.24 380.053 285.187 380.053 280.6C380.053 276.013 380.906 271.987 382.613 268.52C384.373 265.053 386.746 262.387 389.733 260.52C392.719 258.653 396.053 257.72 399.733 257.72ZM413.493 280.68C413.493 277.267 412.533 274.573 410.613 272.6C408.746 270.627 406.453 269.64 403.733 269.64C401.013 269.64 398.693 270.627 396.773 272.6C394.906 274.52 393.973 277.187 393.973 280.6C393.973 284.013 394.906 286.733 396.773 288.76C398.693 290.733 401.013 291.72 403.733 291.72C406.453 291.72 408.746 290.733 410.613 288.76C412.533 286.787 413.493 284.093 413.493 280.68Z" fill="#CCCCCC"/>
<path d="M315.361 122.919C321.248 118.825 322.506 112.921 319.828 106.801C315.997 98.0493 304.988 90.6866 292.334 92.2666C275.876 94.3226 268.86 105.593 265.874 114.175C259.669 132.016 272.341 155.544 294.456 146.376C304.545 142.193 300.566 133.211 315.361 122.919" fill="#231F20"/>
<path d="M335.35 136.448C330.798 142.729 344.635 154.695 349.292 148.823C355.007 141.619 357.154 130.921 348.044 130.961C348.044 130.961 339.075 131.303 335.35 136.448Z" fill="#231F20"/>
<path d="M358.086 145.625C355.094 157.667 344.934 165.952 339.254 169.98C325.281 179.893 310.22 185.877 298.717 188.137C299.718 174.991 291.33 158.927 272.341 155.544C255.674 152.575 248.548 154.841 230.808 152.075C217.43 149.992 198.586 135.181 194.657 110.984C191.973 94.448 192.86 84.0707 183.909 82.312C170.297 79.6374 162.097 106.041 163.457 125.539C165.638 156.803 176.985 184.279 199.368 198.669C180.732 198.669 153.206 198.661 138.478 198.659C156.974 183.615 156.92 158.14 146.688 144.875C137.694 133.216 123.974 134.443 114.108 137.477C110.94 127.156 108.194 117.227 107.078 112.56C101.31 88.456 74.0076 78.408 55.4756 95.792C60.5049 46.8987 102.144 6.38271 155.63 6.38271C182.278 6.38271 207.845 17.0987 226.53 35.6C220.594 42.956 220.674 52.5854 220.698 58.8107C220.773 77.484 237.133 78.7867 242.186 70.3814C248.165 60.4347 245.017 63.5134 255.313 53.7467C257.854 51.3387 258.944 47.7867 258.824 44.0547C291.741 41.1094 321.08 59.976 333.364 87.9107C335.664 95.6707 329.909 100.112 330.53 108.927C330.973 115.263 335.537 117.64 342.222 120.352C343.274 120.932 344.525 121.479 346.037 122.003C355.089 125.131 360.326 136.617 358.086 145.625V145.625ZM126.334 198.224C112.389 205.287 100.909 205.221 96.0889 198.604C89.5502 189.631 97.1809 172.729 113.917 163.396C127.621 155.755 137.029 157.473 141.474 162.221C150.54 171.901 143.336 189.612 126.334 198.224V198.224ZM360.832 126.407C355.156 117.507 348.061 116.117 345.844 115.052C345.088 86.8227 329.612 62.5574 307.137 48.968C309.45 37.8747 302.478 22.4654 284.298 23.8454C273.168 24.6894 266.834 30.7987 262.829 37.4067C261.056 37.4654 259.278 37.5907 257.504 37.7667C253.385 27.2867 242.469 23.408 231.21 31.2614C211.324 11.4707 184.056 2.87628e-05 155.63 2.87628e-05C123.654 2.87628e-05 93.4196 13.792 72.5676 39.1747C67.6889 34.7107 60.1996 31.2134 50.8022 37.3747C34.8662 47.8214 40.3182 70.74 53.2222 75.008C50.2582 84.6094 48.6809 94.64 48.5782 104.868C45.2516 111.063 42.8102 119.505 42.2996 131.117C41.1329 157.68 49.7742 207.596 99.5102 209.429C110.368 209.831 119.913 208.344 127.808 205.039C141.516 205.047 193.784 205.075 212.436 205.068C220.141 207.815 228.8 209.325 238.493 209.325C269.404 209.325 290.884 211.651 297.234 194.956C307.894 193.143 322.95 189.036 336.781 179.767C356.484 179.035 370.472 177.749 377.08 168.268C385.197 156.624 380.441 133.847 360.832 126.407" fill="#231F20"/>
</svg>
