<?xml version="1.0" encoding="UTF-8" standalone="no"?>
<!-- Created with Inkscape (http://www.inkscape.org/) -->

<svg
   version="1.1"
   id="svg2"
   xml:space="preserve"
   width="1122.52"
   height="755.90668"
   viewBox="0 0 1122.52 755.90668"
   sodipodi:docname="622.eps"
   xmlns:inkscape="http://www.inkscape.org/namespaces/inkscape"
   xmlns:sodipodi="http://sodipodi.sourceforge.net/DTD/sodipodi-0.dtd"
   xmlns="http://www.w3.org/2000/svg"
   xmlns:svg="http://www.w3.org/2000/svg"><defs
     id="defs6" /><sodipodi:namedview
     id="namedview4"
     pagecolor="#ffffff"
     bordercolor="#666666"
     borderopacity="1.0"
     inkscape:pageshadow="2"
     inkscape:pageopacity="0.0"
     inkscape:pagecheckerboard="0" /><g
     id="g8"
     inkscape:groupmode="layer"
     inkscape:label="ink_ext_XXXXXX"
     transform="matrix(1.3333333,0,0,-1.3333333,0,755.90667)"><g
       id="g10"
       transform="scale(0.1)"><path
         d="M 8418.9,0 H 0 V 5669.29 H 8418.9 V 0"
         style="fill:#ffffff;fill-opacity:1;fill-rule:nonzero;stroke:none"
         id="path12" /><path
         d="m 3396.53,1341.93 v -133.77 h -18.19 v 133.77 h -25.42 v 15.32 h 25.42 v 13.58 c 0,6.35 0.47,12.23 1.45,17.61 0.96,5.4 2.78,10.03 5.48,13.88 2.69,3.85 6.4,6.84 11.13,8.96 4.71,2.11 10.73,3.18 18.06,3.18 2.69,0 5.19,-0.1 7.51,-0.3 2.31,-0.19 4.91,-0.48 7.8,-0.87 v -15.6 c -2.51,0.4 -4.82,0.72 -6.94,1.02 -2.12,0.29 -4.24,0.42 -6.36,0.42 -5.01,0 -8.86,-0.77 -11.55,-2.3 -2.7,-1.55 -4.68,-3.6 -5.93,-6.2 -1.26,-2.61 -1.98,-5.64 -2.16,-9.11 -0.19,-3.47 -0.3,-7.22 -0.3,-11.26 v -13.01 h 29.49 v -15.32 h -29.49"
         style="fill:#231f20;fill-opacity:1;fill-rule:nonzero;stroke:none"
         id="path14" /><path
         d="m 3590.69,1208.16 v 26.86 h -0.57 c -4.83,-10.01 -11.8,-17.66 -20.95,-22.97 -9.15,-5.28 -19.31,-7.94 -30.48,-7.94 -9.45,0 -17.48,1.3 -24.13,3.91 -6.65,2.59 -12.04,6.3 -16.18,11.12 -4.15,4.81 -7.18,10.69 -9.1,17.62 -1.93,6.94 -2.89,14.82 -2.89,23.69 v 96.8 h 18.2 v -97.08 c 0.39,-13.5 3.51,-23.68 9.39,-30.63 5.88,-6.94 16.03,-10.4 30.49,-10.4 7.89,0 14.63,1.68 20.22,5.05 5.58,3.37 10.21,7.85 13.86,13.44 3.66,5.58 6.36,11.98 8.1,19.22 1.73,7.22 2.6,14.59 2.6,22.1 v 78.3 h 18.2 v -149.09 h -16.76"
         style="fill:#231f20;fill-opacity:1;fill-rule:nonzero;stroke:none"
         id="path16" /><path
         d="m 3703.08,1357.25 v -25.71 h 0.59 c 3.45,9.05 9.62,16.32 18.48,21.8 8.87,5.49 18.59,8.24 29.19,8.24 10.4,0 19.11,-1.34 26.15,-4.05 7.02,-2.69 12.65,-6.49 16.89,-11.4 4.24,-4.92 7.23,-10.94 8.96,-18.06 1.74,-7.13 2.6,-15.13 2.6,-23.99 v -95.92 h -18.2 v 93.03 c 0,6.36 -0.58,12.29 -1.74,17.77 -1.15,5.5 -3.17,10.27 -6.05,14.3 -2.9,4.06 -6.8,7.23 -11.71,9.55 -4.91,2.3 -11.03,3.45 -18.35,3.45 -7.32,0 -13.83,-1.3 -19.5,-3.89 -5.69,-2.6 -10.5,-6.18 -14.45,-10.69 -3.94,-4.54 -7.03,-9.93 -9.25,-16.19 -2.21,-6.26 -3.42,-13.06 -3.61,-20.36 v -86.97 h -18.2 v 149.09 h 18.2"
         style="fill:#231f20;fill-opacity:1;fill-rule:nonzero;stroke:none"
         id="path18" /><path
         d="m 3901.57,1357.25 v -25.71 h 0.59 c 3.46,9.05 9.62,16.32 18.48,21.8 8.87,5.49 18.59,8.24 29.19,8.24 10.4,0 19.12,-1.34 26.15,-4.05 7.02,-2.69 12.65,-6.49 16.9,-11.4 4.23,-4.92 7.22,-10.94 8.95,-18.06 1.74,-7.13 2.6,-15.13 2.6,-23.99 v -95.92 h -18.2 v 93.03 c 0,6.36 -0.58,12.29 -1.74,17.77 -1.15,5.5 -3.17,10.27 -6.05,14.3 -2.9,4.06 -6.79,7.23 -11.71,9.55 -4.91,2.3 -11.03,3.45 -18.35,3.45 -7.32,0 -13.82,-1.3 -19.5,-3.89 -5.69,-2.6 -10.5,-6.18 -14.44,-10.69 -3.95,-4.54 -7.04,-9.93 -9.25,-16.19 -2.22,-6.26 -3.43,-13.06 -3.62,-20.36 v -86.97 h -18.2 v 149.09 h 18.2"
         style="fill:#231f20;fill-opacity:1;fill-rule:nonzero;stroke:none"
         id="path20" /><path
         d="m 4084.75,1357.25 49.12,-127.13 45.93,127.13 h 18.21 l -64.72,-171.63 c -2.7,-6.36 -5.19,-11.6 -7.52,-15.74 -2.31,-4.14 -4.86,-7.42 -7.64,-9.82 -2.81,-2.42 -6.08,-4.15 -9.83,-5.21 -3.76,-1.06 -8.53,-1.59 -14.31,-1.59 -3.65,0.2 -6.49,0.34 -8.52,0.43 -2.02,0.1 -3.81,0.44 -5.34,1.02 v 15.3 c 2.12,-0.37 4.19,-0.72 6.21,-0.99 2.02,-0.3 4.09,-0.45 6.21,-0.45 4.05,0 7.37,0.58 9.97,1.75 2.6,1.15 4.86,2.74 6.79,4.75 1.93,2.03 3.56,4.48 4.91,7.37 1.34,2.89 2.79,6.07 4.33,9.54 l 6.37,16.75 -59.53,148.52 h 19.36"
         style="fill:#231f20;fill-opacity:1;fill-rule:nonzero;stroke:none"
         id="path22" /><path
         d="m 4401.41,1414.46 v -206.3 h -18.2 v 206.3 h 18.2"
         style="fill:#231f20;fill-opacity:1;fill-rule:nonzero;stroke:none"
         id="path24" /><path
         d="m 4574.47,1289.64 c -1.15,-2.13 -3.36,-3.67 -6.63,-4.64 -3.29,-0.95 -6.18,-1.62 -8.68,-2.01 -7.7,-1.34 -15.65,-2.56 -23.84,-3.61 -8.18,-1.06 -15.64,-2.64 -22.38,-4.77 -6.75,-2.12 -12.29,-5.15 -16.61,-9.1 -4.35,-3.95 -6.5,-9.59 -6.5,-16.89 0,-4.63 0.9,-8.72 2.74,-12.29 1.82,-3.56 4.29,-6.64 7.36,-9.25 3.09,-2.59 6.65,-4.58 10.69,-5.92 4.05,-1.34 8.18,-2.02 12.43,-2.02 6.94,0 13.58,1.06 19.94,3.18 6.36,2.11 11.89,5.19 16.61,9.25 4.72,4.04 8.48,8.95 11.27,14.73 2.79,5.77 4.19,12.33 4.19,19.65 v 23.69 z m -91.01,44.5 c 3.08,6.35 7.27,11.54 12.58,15.6 5.29,4.04 11.5,7.02 18.63,8.95 7.12,1.93 15.03,2.89 23.69,2.89 6.55,0 13.1,-0.62 19.65,-1.88 6.54,-1.25 12.42,-3.6 17.62,-7.08 5.21,-3.47 9.44,-8.32 12.73,-14.58 3.26,-6.26 4.9,-14.4 4.9,-24.41 v -79.17 c 0,-7.33 3.56,-10.99 10.7,-10.99 2.1,0 4.04,0.38 5.76,1.16 v -15.31 c -2.12,-0.4 -3.99,-0.67 -5.64,-0.87 -1.62,-0.2 -3.7,-0.29 -6.2,-0.29 -4.62,0 -8.34,0.62 -11.13,1.88 -2.79,1.24 -4.95,3.03 -6.5,5.34 -1.54,2.31 -2.54,5.06 -3.02,8.24 -0.49,3.17 -0.73,6.69 -0.73,10.54 h -0.57 c -3.28,-4.82 -6.6,-9.11 -9.97,-12.86 -3.38,-3.75 -7.13,-6.88 -11.27,-9.39 -4.14,-2.5 -8.86,-4.43 -14.15,-5.77 -5.31,-1.34 -11.61,-2.03 -18.94,-2.03 -6.93,0 -13.44,0.82 -19.49,2.47 -6.07,1.62 -11.38,4.22 -15.9,7.79 -4.52,3.56 -8.08,8.09 -10.69,13.58 -2.6,5.49 -3.9,11.98 -3.9,19.5 0,10.39 2.32,18.54 6.93,24.42 4.63,5.87 10.75,10.35 18.34,13.44 7.62,3.08 16.19,5.24 25.73,6.49 9.53,1.26 19.21,2.45 29.03,3.61 3.86,0.38 7.22,0.87 10.12,1.45 2.88,0.57 5.29,1.59 7.21,3.03 1.93,1.44 3.43,3.42 4.5,5.93 1.04,2.49 1.58,5.77 1.58,9.82 0,6.17 -1.02,11.23 -3.05,15.17 -2.01,3.94 -4.81,7.08 -8.36,9.39 -3.57,2.3 -7.71,3.89 -12.43,4.76 -4.73,0.87 -9.77,1.3 -15.18,1.3 -11.55,0 -20.99,-2.74 -28.3,-8.22 -7.33,-5.5 -11.17,-14.31 -11.56,-26.45 h -18.2 c 0.57,8.67 2.4,16.18 5.48,22.55"
         style="fill:#231f20;fill-opacity:1;fill-rule:nonzero;stroke:none"
         id="path26" /><path
         d="m 4784.53,1223.47 v -15.31 h -124.52 v 14.73 l 97.36,119.04 h -90.72 v 15.32 h 113.84 v -13.01 l -98.53,-120.77 h 102.57"
         style="fill:#231f20;fill-opacity:1;fill-rule:nonzero;stroke:none"
         id="path28" /><path
         d="m 4852.72,1357.25 49.12,-127.13 45.93,127.13 h 18.22 l -64.73,-171.63 c -2.71,-6.36 -5.2,-11.6 -7.51,-15.74 -2.31,-4.14 -4.87,-7.42 -7.66,-9.82 -2.8,-2.42 -6.07,-4.15 -9.82,-5.21 -3.75,-1.06 -8.53,-1.59 -14.31,-1.59 -3.66,0.2 -6.5,0.34 -8.51,0.43 -2.03,0.1 -3.81,0.44 -5.36,1.02 v 15.3 c 2.12,-0.37 4.2,-0.72 6.22,-0.99 2.02,-0.3 4.09,-0.45 6.21,-0.45 4.04,0 7.36,0.58 9.97,1.75 2.6,1.15 4.85,2.74 6.79,4.75 1.92,2.03 3.56,4.48 4.91,7.37 1.35,2.89 2.79,6.07 4.33,9.54 l 6.36,16.75 -59.52,148.52 h 19.36"
         style="fill:#231f20;fill-opacity:1;fill-rule:nonzero;stroke:none"
         id="path30" /><path
         d="m 4942.69,2925.67 c 44.15,30.7 53.59,74.98 33.5,120.88 -28.73,65.64 -111.3,120.86 -206.2,109.01 -123.44,-15.42 -176.06,-99.95 -198.45,-164.31 -46.54,-133.81 48.5,-310.27 214.36,-241.51 75.67,31.37 45.83,98.74 156.79,175.93"
         style="fill:#231f20;fill-opacity:1;fill-rule:nonzero;stroke:none"
         id="path32" /><path
         d="m 5092.6,2824.2 c -34.14,-47.11 69.64,-136.85 104.57,-92.81 42.86,54.03 58.96,134.26 -9.36,133.96 0,0 -67.27,-2.56 -95.21,-41.15"
         style="fill:#231f20;fill-opacity:1;fill-rule:nonzero;stroke:none"
         id="path34" /><path
         d="m 5263.13,2755.37 c -22.44,-90.31 -98.64,-152.45 -141.24,-182.66 -104.8,-74.35 -217.76,-119.23 -304.03,-136.18 7.51,98.6 -55.4,219.08 -197.82,244.45 -125,22.27 -178.45,5.27 -311.5,26.02 -100.33,15.62 -241.66,126.7 -271.13,308.18 -20.13,124.02 -13.48,201.85 -80.61,215.04 -102.09,20.06 -163.59,-177.97 -153.39,-324.2 16.36,-234.48 101.46,-440.55 269.33,-548.48 -139.77,0 -346.21,0.06 -456.67,0.08 138.72,112.83 138.31,303.89 61.57,403.38 -67.45,87.44 -170.35,78.24 -244.35,55.48 -23.76,77.41 -44.35,151.88 -52.72,186.88 -43.26,180.78 -248.03,256.14 -387.02,125.76 37.72,366.7 350.01,670.57 751.16,670.57 199.86,0 391.61,-80.37 531.75,-219.13 -44.52,-55.17 -43.92,-127.39 -43.74,-174.08 0.56,-140.05 123.26,-149.82 161.16,-86.78 44.84,74.6 21.23,51.51 98.45,124.76 19.06,18.06 27.23,44.7 26.33,72.69 246.88,22.09 466.92,-119.41 559.05,-328.92 17.25,-58.2 -25.91,-91.51 -21.25,-157.62 3.32,-47.52 37.55,-65.35 87.69,-85.69 7.89,-4.35 17.27,-8.45 28.61,-12.38 67.89,-23.46 107.17,-109.61 90.37,-177.17 z M 3524.99,2360.88 c -104.59,-52.97 -190.69,-52.48 -226.84,-2.85 -49.04,67.3 8.19,194.06 133.71,264.06 102.78,57.31 173.34,44.42 206.68,8.81 67.99,-72.6 13.96,-205.43 -113.55,-270.02 z m 1758.73,538.63 c -42.57,66.75 -95.78,77.17 -112.41,85.16 -5.67,211.72 -121.74,393.71 -290.3,495.63 17.35,83.2 -34.94,198.77 -171.29,188.42 -83.48,-6.33 -130.98,-52.15 -161.02,-101.71 -13.3,-0.44 -26.63,-1.38 -39.94,-2.7 -30.89,78.6 -112.76,107.69 -197.2,48.79 -149.15,148.43 -353.66,234.46 -566.85,234.46 -239.82,0 -466.58,-103.44 -622.97,-293.81 -36.59,33.48 -92.76,59.71 -163.24,13.5 -119.52,-78.35 -78.63,-250.24 18.15,-282.25 -22.23,-72.01 -34.06,-147.24 -34.83,-223.95 -24.95,-46.46 -43.26,-109.78 -47.09,-196.87 -8.75,-199.22 56.06,-573.59 429.08,-587.34 81.43,-3.01 153.02,8.14 212.23,32.93 102.81,-0.06 494.82,-0.27 634.71,-0.22 57.79,-20.6 122.73,-31.93 195.43,-31.93 231.83,0 392.93,-17.44 440.56,107.77 79.95,13.6 192.87,44.4 296.6,113.92 147.77,5.49 252.68,15.13 302.24,86.24 60.88,87.33 25.21,258.16 -121.86,313.96"
         style="fill:#231f20;fill-opacity:1;fill-rule:nonzero;stroke:none"
         id="path36" /><path
         d="m 3373.91,1758.68 c 0,42.9 -8.25,75.9 -24.75,99.02 -16.5,23.08 -40.17,34.64 -70.95,34.64 -29.7,0 -52.8,-11.56 -69.3,-34.64 -15.42,-20.92 -23.1,-53.92 -23.1,-99.02 0,-41.81 8.24,-73.16 24.74,-94.04 16.5,-23.09 40.15,-34.66 70.95,-34.66 28.59,0 51.16,11.57 67.66,34.66 16.5,23.11 24.75,54.45 24.75,94.04 z m -188.1,-323.39 c 0,-15.39 -5.52,-28.6 -16.51,-39.61 -11,-10.99 -24.2,-16.5 -39.59,-16.5 h -56.11 v 410.85 c 0,76.99 22.53,129.53 67.65,157.59 45.1,28.05 94.05,42.07 146.86,42.07 27.48,0 55.27,-5.23 83.33,-15.67 28.04,-10.46 50.32,-25.58 66.82,-45.38 33,-42.9 49.5,-97.91 49.5,-164.99 0,-69.31 -16.5,-125.4 -49.5,-168.31 -33.01,-41.82 -75.36,-62.7 -127.05,-62.7 -27.51,0 -51.72,4.94 -72.61,14.85 -22.01,10.98 -39.6,28.05 -52.79,51.15 v -163.35"
         style="fill:#231f20;fill-opacity:1;fill-rule:nonzero;stroke:none"
         id="path38" /><path
         d="m 3797.43,1762 c -15.42,-7.72 -36.87,-14.86 -64.35,-21.47 l -37.95,-8.23 c -19.8,-5.53 -34.11,-12.68 -42.9,-21.47 -7.71,-12.11 -11.55,-24.21 -11.55,-36.31 0,-16.49 4.95,-29.69 14.85,-39.58 9.89,-8.82 24.18,-13.2 42.9,-13.2 30.78,0 54.99,8.78 72.6,26.4 17.58,17.59 26.4,41.78 26.4,72.59 z m 26.4,-202.96 c -23.1,-12.12 -47.59,-19.53 -73.43,-22.28 -25.86,-2.73 -48.67,-4.12 -68.48,-4.12 -39.6,0 -74.24,10.72 -103.94,32.17 -29.71,21.45 -44.56,56.93 -44.56,106.43 0,46.2 13.46,79.2 40.43,99 26.94,19.79 61.31,33 103.13,39.6 5.49,0 12.09,0.83 19.79,2.49 7.69,1.63 16.51,3 26.41,4.1 48.39,6.61 72.6,20.9 72.6,42.92 0,16.5 -8.54,27.22 -25.57,32.17 -17.08,4.94 -32.75,7.42 -47.03,7.42 -15.42,0 -29.16,-2.22 -41.26,-6.6 -12.11,-4.41 -20.9,-12.66 -26.39,-24.75 h -110.55 c 4.38,34.09 19.79,62.14 46.19,84.15 29.7,25.29 72.04,37.95 127.06,37.95 61.58,0 107.79,-10.46 138.6,-31.35 31.89,-22.02 47.85,-52.8 47.85,-92.4 v -150.15 c 0,-44.02 -7.99,-78.38 -23.92,-103.13 -15.97,-24.75 -34.94,-42.64 -56.93,-53.62"
         style="fill:#231f20;fill-opacity:1;fill-rule:nonzero;stroke:none"
         id="path40" /><path
         d="m 4350.45,1540.89 h -57.74 c -16.51,0 -30,5.2 -40.43,15.68 -10.46,10.43 -15.69,23.9 -15.69,40.42 v 224.4 c 0,26.4 -7.98,45.63 -23.91,57.74 -15.96,12.1 -33.83,18.16 -53.63,18.16 -19.8,0 -37.41,-6.06 -52.8,-18.16 -15.42,-12.11 -23.11,-31.34 -23.11,-57.74 v -280.5 h -115.49 v 257.39 c 0,74.81 19.51,124.85 58.57,150.16 39.03,25.29 82.22,39.03 129.53,41.25 48.39,0 92.94,-12.66 133.65,-37.95 40.69,-25.31 61.05,-76.46 61.05,-153.46 v -257.39"
         style="fill:#231f20;fill-opacity:1;fill-rule:nonzero;stroke:none"
         id="path42" /><path
         d="m 4517.36,1763.65 c 0,-44.03 8.27,-77.55 24.76,-100.66 16.5,-23.09 40.14,-34.67 70.95,-34.67 29.69,0 52.81,11.58 69.3,34.67 15.39,23.11 23.1,56.63 23.1,100.66 0,39.59 -8.24,70.93 -24.75,94.05 -17.61,21.98 -41.25,33 -70.94,33 -28.63,0 -51.16,-11.57 -67.66,-34.66 -16.49,-22.01 -24.76,-52.8 -24.76,-92.39 z m 188.11,346.49 h 56.11 c 15.38,0 28.59,-5.77 39.59,-17.31 10.99,-11.57 16.5,-24.5 16.5,-38.78 V 1732.3 c 0,-78.14 -22.56,-130.93 -67.64,-158.41 -45.13,-27.52 -94.05,-41.25 -146.86,-41.25 -28.62,0 -56.68,4.69 -84.16,14.02 -27.51,9.33 -49.49,24.47 -65.98,45.38 -31.94,40.68 -47.86,96.23 -47.86,166.64 0,69.32 15.92,124.85 47.86,166.65 32.99,42.92 75.32,64.36 127.03,64.36 27.49,0 51.7,-5.52 72.62,-16.5 21.98,-13.2 39.59,-30.27 52.79,-51.15 v 188.1"
         style="fill:#231f20;fill-opacity:1;fill-rule:nonzero;stroke:none"
         id="path44" /><path
         d="m 5138.05,1762 c -15.43,-7.72 -36.88,-14.86 -64.36,-21.47 l -37.95,-8.23 c -19.79,-5.53 -34.11,-12.68 -42.9,-21.47 -7.72,-12.11 -11.55,-24.21 -11.55,-36.31 0,-16.49 4.95,-29.69 14.85,-39.58 9.9,-8.82 24.18,-13.2 42.9,-13.2 30.78,0 54.98,8.78 72.6,26.4 17.58,17.59 26.41,41.78 26.41,72.59 z m 26.39,-202.96 c -23.1,-12.12 -47.59,-19.53 -73.42,-22.28 -25.87,-2.73 -48.68,-4.12 -68.48,-4.12 -39.6,0 -74.25,10.72 -103.95,32.17 -29.7,21.45 -44.55,56.93 -44.55,106.43 0,46.2 13.45,79.2 40.42,99 26.95,19.79 61.31,33 103.13,39.6 5.5,0 12.08,0.83 19.8,2.49 7.68,1.63 16.5,3 26.4,4.1 48.39,6.61 72.61,20.9 72.61,42.92 0,16.5 -8.55,27.22 -25.59,32.17 -17.07,4.94 -32.74,7.42 -47.02,7.42 -15.42,0 -29.16,-2.22 -41.25,-6.6 -12.11,-4.41 -20.91,-12.66 -26.4,-24.75 h -110.55 c 4.37,34.09 19.8,62.14 46.2,84.15 29.69,25.29 72.03,37.95 127.06,37.95 61.59,0 107.79,-10.46 138.59,-31.35 31.91,-22.02 47.85,-52.8 47.85,-92.4 v -150.15 c 0,-44.02 -8,-78.38 -23.92,-103.13 -15.97,-24.75 -34.94,-42.64 -56.93,-53.62"
         style="fill:#231f20;fill-opacity:1;fill-rule:nonzero;stroke:none"
         id="path46" /></g></g></svg>
